<svg xmlns="http://www.w3.org/2000/svg" viewBox="0 0 480 480" style="enable-background:new 0 0 480 480" xml:space="preserve"><path style="fill:#51abd8" d="M32.659 320h64v160h-64zM144.659 272h64v208h-64zM256.659 224h64v256h-64zM368.659 176h64v304h-64z"/><path style="fill:#dedad8" d="M96.659 480V320l16 16v144zM208.659 480V272l16 16v192zM320.659 480V224l16 16v240zM432.659 480V176l16 16v288z"/><path style="fill:#ffc117" d="M32.659 320h64v32h-64zM144.659 272h64v32h-64zM256.659 224h64v32h-64zM368.659 176h64v32h-64z"/><path style="opacity:.3;fill:#1588c9;enable-background:new" d="M394.259 480h38.4V208h-26.4z"/><path style="opacity:.3;fill:#e97424;enable-background:new" d="m407.859 176-1.6 32h26.4v-32z"/><path style="opacity:.3;fill:#1588c9;enable-background:new" d="M282.259 480h38.4V256h-28.8z"/><path style="opacity:.3;fill:#e97424;enable-background:new" d="m293.459 224-1.6 32h28.8v-32z"/><path style="opacity:.3;fill:#1588c9;enable-background:new" d="M170.259 480h38.4V304h-30.4z"/><path style="opacity:.3;fill:#e97424;enable-background:new" d="m179.059 272-.8 32h30.4v-32z"/><path style="opacity:.3;fill:#1588c9;enable-background:new" d="M58.259 480h38.4V352h-32.8z"/><path style="opacity:.3;fill:#e97424;enable-background:new" d="m65.459 320-1.6 32h32.8v-32z"/><g><path style="fill:#999" d="M136.659 232h48v16h-48zM456.659 56h-16V16h-40V0h48c4.8 0 8 3.2 8 8v48zM200.659 232h16v16h-16zM24.659 280h48v16h-48zM88.659 280h16v16h-16zM248.659 184h48v16h-48zM312.659 184h16v16h-16zM360.659 136h48v16h-48zM424.659 136h16v16h-16z"/><path style="fill:#999" d="m54.259 189.6-11.2-11.2 96-96c3.2-3.2 8-3.2 11.2 0l58.4 58.4 106.4-106.4c3.2-3.2 8-3.2 11.2 0l42.4 42.4 74.4-74.4 11.2 11.2-80 80c-3.2 3.2-8 3.2-11.2 0l-42.4-42.4-106.4 106.4c-3.2 3.2-8 3.2-11.2 0l-58.4-58.4-90.4 90.4z"/><path transform="rotate(134.999 34.938 198.28)" style="fill:#999" d="M26.537 190.279h16.8v16h-16.8z"/></g></svg>